<svg id="Icon_ionic-ios-notifications" data-name="Icon ionic-ios-notifications" xmlns="http://www.w3.org/2000/svg" width="36.68" height="45.877" viewBox="0 0 36.68 45.877">
  <path id="Trazado_1" data-name="Trazado 1" d="M20.131,34.413c3.566,0,5.515-2.523,5.515-6.077H14.6C14.6,31.89,16.553,34.413,20.131,34.413Z" transform="translate(-1.814 11.464)" fill="#f9b65d"/>
  <path id="Trazado_2" data-name="Trazado 2" d="M42.977,37.905c-1.766-2.328-5.24-3.692-5.24-14.115,0-10.7-4.724-15-9.127-16.03-.413-.1-.711-.241-.711-.677V6.751a2.8,2.8,0,1,0-5.6,0v.333c0,.424-.3.573-.711.677-4.415,1.043-9.127,5.332-9.127,16.03,0,10.423-3.474,11.776-5.24,14.115a2.276,2.276,0,0,0,1.823,3.646H41.165A2.277,2.277,0,0,0,42.977,37.905Z" transform="translate(-6.761 -3.93)" fill="#f9b65d"/>
</svg>
