<svg xmlns="http://www.w3.org/2000/svg" width="41.235" height="41.245" viewBox="0 0 41.235 41.245">
  <path id="Icon_ionic-ios-settings" data-name="Icon ionic-ios-settings" d="M42.331,25.117a5.306,5.306,0,0,1,3.4-4.95,21.032,21.032,0,0,0-2.545-6.132,5.377,5.377,0,0,1-2.158.462,5.294,5.294,0,0,1-4.843-7.452A20.969,20.969,0,0,0,30.068,4.5a5.3,5.3,0,0,1-9.9,0,21.032,21.032,0,0,0-6.132,2.545A5.294,5.294,0,0,1,9.193,14.5a5.2,5.2,0,0,1-2.158-.462A21.5,21.5,0,0,0,4.5,20.178a5.3,5.3,0,0,1,.011,9.9A21.032,21.032,0,0,0,7.056,36.21,5.3,5.3,0,0,1,14.046,43.2a21.155,21.155,0,0,0,6.132,2.545,5.292,5.292,0,0,1,9.879,0A21.032,21.032,0,0,0,36.188,43.2a5.3,5.3,0,0,1,6.991-6.991,21.155,21.155,0,0,0,2.545-6.132A5.331,5.331,0,0,1,42.331,25.117ZM25.214,33.7A8.591,8.591,0,1,1,33.8,25.107,8.588,8.588,0,0,1,25.214,33.7Z" transform="translate(-4.5 -4.5)" fill="#f9b65d"/>
</svg>
